<svg width="31" height="32" viewBox="0 0 31 32" fill="none" xmlns="http://www.w3.org/2000/svg">
<path d="M30.7296 6.35708C30.6219 6.22812 30.4871 6.12439 30.3349 6.05323C30.1826 5.98206 30.0166 5.94519 29.8485 5.94522H6.6987L5.99697 2.09071C5.90086 1.56167 5.62212 1.08313 5.20934 0.738541C4.79657 0.393948 4.27595 0.205156 3.73824 0.205078H1.14802C0.843547 0.205078 0.551543 0.326031 0.336247 0.541328C0.120952 0.756625 0 1.04863 0 1.35311C0 1.65758 0.120952 1.94959 0.336247 2.16489C0.551543 2.38018 0.843547 2.50114 1.14802 2.50114H3.73107L7.39899 22.6332C7.50704 23.2303 7.7709 23.7882 8.16386 24.2505C7.62149 24.7571 7.23002 25.404 7.03286 26.1195C6.8357 26.835 6.84055 27.5912 7.04688 28.3041C7.25321 29.017 7.65295 29.6588 8.20178 30.1584C8.75061 30.658 9.42709 30.9958 10.1562 31.1344C10.8853 31.273 11.6385 31.2069 12.3324 30.9436C13.0263 30.6802 13.6336 30.2298 14.0871 29.6423C14.5407 29.0549 14.8226 28.3533 14.9017 27.6153C14.9808 26.8774 14.854 26.132 14.5354 25.4617H21.0533C20.7964 25.9994 20.6635 26.5879 20.6644 27.1837C20.6644 27.9785 20.9 28.7553 21.3415 29.4161C21.7831 30.0769 22.4106 30.5919 23.1448 30.896C23.879 31.2001 24.6869 31.2797 25.4663 31.1246C26.2458 30.9696 26.9617 30.5869 27.5237 30.025C28.0856 29.463 28.4683 28.7471 28.6233 27.9676C28.7783 27.1882 28.6988 26.3803 28.3947 25.6461C28.0905 24.9119 27.5755 24.2843 26.9148 23.8428C26.254 23.4013 25.4771 23.1656 24.6824 23.1656H10.7871C10.5182 23.1656 10.2579 23.0712 10.0515 22.8989C9.84515 22.7266 9.70578 22.4874 9.65772 22.2228L9.20282 19.7216H25.8491C26.6557 19.7214 27.4366 19.4383 28.0558 18.9214C28.6749 18.4045 29.093 17.6867 29.2372 16.8931L30.9822 7.29846C31.0117 7.13263 31.0044 6.96232 30.9608 6.79963C30.9171 6.63694 30.8382 6.48585 30.7296 6.35708ZM12.6282 27.1837C12.6282 27.5243 12.5272 27.8573 12.338 28.1405C12.1488 28.4237 11.8798 28.6444 11.5652 28.7747C11.2505 28.905 10.9043 28.9391 10.5702 28.8727C10.2362 28.8063 9.92937 28.6422 9.68854 28.4014C9.44771 28.1606 9.2837 27.8537 9.21725 27.5197C9.15081 27.1857 9.18491 26.8394 9.31525 26.5248C9.44558 26.2101 9.6663 25.9411 9.94949 25.7519C10.2327 25.5627 10.5656 25.4617 10.9062 25.4617C11.3629 25.4617 11.8009 25.6431 12.1239 25.9661C12.4468 26.289 12.6282 26.727 12.6282 27.1837ZM26.4045 27.1837C26.4045 27.5243 26.3035 27.8573 26.1143 28.1405C25.925 28.4237 25.6561 28.6444 25.3414 28.7747C25.0268 28.905 24.6805 28.9391 24.3465 28.8727C24.0125 28.8063 23.7056 28.6422 23.4648 28.4014C23.224 28.1606 23.0599 27.8537 22.9935 27.5197C22.9271 27.1857 22.9612 26.8394 23.0915 26.5248C23.2218 26.2101 23.4425 25.9411 23.7257 25.7519C24.0089 25.5627 24.3419 25.4617 24.6824 25.4617C25.1392 25.4617 25.5772 25.6431 25.9001 25.9661C26.223 26.289 26.4045 26.727 26.4045 27.1837ZM26.9785 16.4827C26.9303 16.7479 26.7903 16.9878 26.583 17.1602C26.3757 17.3325 26.1144 17.4265 25.8448 17.4255H8.78523L7.11629 8.24128H28.4723L26.9785 16.4827Z" fill="#F17F00"/>
</svg>
