<svg width="40" height="40" viewBox="0 0 40 40" fill="none" xmlns="http://www.w3.org/2000/svg">
<path d="M33.75 7.5H27.5V6.25C27.5 5.25544 27.1049 4.30161 26.4017 3.59835C25.6984 2.89509 24.7446 2.5 23.75 2.5H16.25C15.2554 2.5 14.3016 2.89509 13.5983 3.59835C12.8951 4.30161 12.5 5.25544 12.5 6.25V7.5H6.25C5.91848 7.5 5.60054 7.6317 5.36612 7.86612C5.1317 8.10054 5 8.41848 5 8.75C5 9.08152 5.1317 9.39946 5.36612 9.63388C5.60054 9.8683 5.91848 10 6.25 10H7.5V32.5C7.5 33.163 7.76339 33.7989 8.23223 34.2678C8.70107 34.7366 9.33696 35 10 35H30C30.663 35 31.2989 34.7366 31.7678 34.2678C32.2366 33.7989 32.5 33.163 32.5 32.5V10H33.75C34.0815 10 34.3995 9.8683 34.6339 9.63388C34.8683 9.39946 35 9.08152 35 8.75C35 8.41848 34.8683 8.10054 34.6339 7.86612C34.3995 7.6317 34.0815 7.5 33.75 7.5ZM15 6.25C15 5.91848 15.1317 5.60054 15.3661 5.36612C15.6005 5.1317 15.9185 5 16.25 5H23.75C24.0815 5 24.3995 5.1317 24.6339 5.36612C24.8683 5.60054 25 5.91848 25 6.25V7.5H15V6.25ZM30 32.5H10V10H30V32.5ZM17.5 16.25V26.25C17.5 26.5815 17.3683 26.8995 17.1339 27.1339C16.8995 27.3683 16.5815 27.5 16.25 27.5C15.9185 27.5 15.6005 27.3683 15.3661 27.1339C15.1317 26.8995 15 26.5815 15 26.25V16.25C15 15.9185 15.1317 15.6005 15.3661 15.3661C15.6005 15.1317 15.9185 15 16.25 15C16.5815 15 16.8995 15.1317 17.1339 15.3661C17.3683 15.6005 17.5 15.9185 17.5 16.25ZM25 16.25V26.25C25 26.5815 24.8683 26.8995 24.6339 27.1339C24.3995 27.3683 24.0815 27.5 23.75 27.5C23.4185 27.5 23.1005 27.3683 22.8661 27.1339C22.6317 26.8995 22.5 26.5815 22.5 26.25V16.25C22.5 15.9185 22.6317 15.6005 22.8661 15.3661C23.1005 15.1317 23.4185 15 23.75 15C24.0815 15 24.3995 15.1317 24.6339 15.3661C24.8683 15.6005 25 15.9185 25 16.25Z" fill="black"/>
</svg>
